<svg width="640" height="640" viewBox="0 0 640 640" fill="none" xmlns="http://www.w3.org/2000/svg">
<path d="M559.492 345H562.023L569.137 356.391H569.348L576.461 345H578.992L570.332 358.605V369H568.152V358.605L559.492 345Z" fill="#5B1432"/>
<path d="M526.867 346.969V345H544.27V346.969H536.664V369H534.473V346.969H526.867Z" fill="#5B1432"/>
<path d="M507.219 345H509.41V360.891C509.41 362.523 509.027 363.984 508.262 365.273C507.496 366.555 506.43 367.566 505.062 368.309C503.703 369.043 502.121 369.41 500.316 369.41C498.52 369.41 496.938 369.039 495.57 368.297C494.203 367.555 493.137 366.543 492.371 365.262C491.605 363.98 491.223 362.523 491.223 360.891V345H493.414V360.738C493.414 362.012 493.699 363.148 494.27 364.148C494.84 365.141 495.641 365.922 496.672 366.492C497.711 367.062 498.926 367.348 500.316 367.348C501.707 367.348 502.922 367.062 503.961 366.492C505 365.922 505.801 365.141 506.363 364.148C506.934 363.148 507.219 362.012 507.219 360.738V345Z" fill="#5B1432"/>
<path d="M457.062 369H454.766L463.496 345H465.84L474.57 369H472.273L464.75 347.848H464.586L457.062 369ZM458.715 359.801H470.621V361.77H458.715V359.801Z" fill="#5B1432"/>
<path d="M424.893 369V345H438.814V346.969H427.084V356.004H438.076V357.973H427.084V367.031H439.049V369H424.893Z" fill="#5B1432"/>
<path d="M390.986 369V345H399.084C400.646 345 401.947 345.273 402.986 345.82C404.033 346.367 404.818 347.113 405.342 348.059C405.865 349.004 406.127 350.078 406.127 351.281C406.127 352.281 405.959 353.137 405.623 353.848C405.287 354.559 404.83 355.133 404.252 355.57C403.674 356.008 403.029 356.324 402.318 356.52V356.707C403.092 356.762 403.842 357.035 404.568 357.527C405.295 358.012 405.893 358.691 406.361 359.566C406.83 360.441 407.064 361.488 407.064 362.707C407.064 363.918 406.795 365 406.256 365.953C405.717 366.898 404.889 367.645 403.771 368.191C402.662 368.73 401.248 369 399.529 369H390.986ZM393.178 367.031H399.529C401.381 367.031 402.748 366.621 403.631 365.801C404.521 364.98 404.967 363.949 404.967 362.707C404.967 361.793 404.744 360.965 404.299 360.223C403.861 359.473 403.24 358.879 402.436 358.441C401.639 358.004 400.701 357.785 399.623 357.785H393.178V367.031ZM393.178 355.84H399.283C400.229 355.84 401.057 355.645 401.768 355.254C402.479 354.863 403.033 354.324 403.432 353.637C403.83 352.949 404.029 352.164 404.029 351.281C404.029 350.008 403.615 348.973 402.787 348.176C401.959 347.371 400.725 346.969 399.084 346.969H393.178V355.84Z" fill="#5B1432"/>
<path d="M333.01 345H335.541L342.654 356.391H342.865L349.979 345H352.51L343.85 358.605V369H341.67V358.605L333.01 345Z" fill="#5B1432"/>
<path d="M305.285 369V345H307.477V367.031H318.914V369H305.285Z" fill="#5B1432"/>
<path d="M284.184 345H286.375V360.891C286.375 362.523 285.992 363.984 285.227 365.273C284.461 366.555 283.395 367.566 282.027 368.309C280.668 369.043 279.086 369.41 277.281 369.41C275.484 369.41 273.902 369.039 272.535 368.297C271.168 367.555 270.102 366.543 269.336 365.262C268.57 363.98 268.188 362.523 268.188 360.891V345H270.379V360.738C270.379 362.012 270.664 363.148 271.234 364.148C271.805 365.141 272.605 365.922 273.637 366.492C274.676 367.062 275.891 367.348 277.281 367.348C278.672 367.348 279.887 367.062 280.926 366.492C281.965 365.922 282.766 365.141 283.328 364.148C283.898 363.148 284.184 362.012 284.184 360.738V345Z" fill="#5B1432"/>
<path d="M236.312 369V345H250.199V346.969H238.504V356.004H249.109V357.973H238.504V369H236.312Z" fill="#5B1432"/>
<path d="M204.178 369V345H218.1V346.969H206.369V356.004H217.361V357.973H206.369V367.031H218.334V369H204.178Z" fill="#5B1432"/>
<path d="M186.49 352.5H184.287C184.123 351.68 183.826 350.922 183.396 350.227C182.975 349.523 182.443 348.91 181.803 348.387C181.162 347.863 180.436 347.457 179.623 347.168C178.811 346.879 177.932 346.734 176.986 346.734C175.471 346.734 174.088 347.129 172.838 347.918C171.596 348.707 170.6 349.867 169.85 351.398C169.107 352.922 168.736 354.789 168.736 357C168.736 359.227 169.107 361.102 169.85 362.625C170.6 364.148 171.596 365.305 172.838 366.094C174.088 366.875 175.471 367.266 176.986 367.266C177.932 367.266 178.811 367.121 179.623 366.832C180.436 366.543 181.162 366.141 181.803 365.625C182.443 365.102 182.975 364.488 183.396 363.785C183.826 363.082 184.123 362.32 184.287 361.5H186.49C186.295 362.602 185.928 363.629 185.389 364.582C184.857 365.527 184.178 366.355 183.35 367.066C182.529 367.777 181.584 368.332 180.514 368.73C179.443 369.129 178.268 369.328 176.986 369.328C174.971 369.328 173.182 368.824 171.619 367.816C170.057 366.801 168.83 365.371 167.939 363.527C167.057 361.684 166.615 359.508 166.615 357C166.615 354.492 167.057 352.316 167.939 350.473C168.83 348.629 170.057 347.203 171.619 346.195C173.182 345.18 174.971 344.672 176.986 344.672C178.268 344.672 179.443 344.871 180.514 345.27C181.584 345.66 182.529 346.215 183.35 346.934C184.178 347.645 184.857 348.473 185.389 349.418C185.928 350.363 186.295 351.391 186.49 352.5Z" fill="#5B1432"/>
<path d="M134.66 369H132.363L141.094 345H143.438L152.168 369H149.871L142.348 347.848H142.184L134.66 369ZM136.312 359.801H148.219V361.77H136.312V359.801Z" fill="#5B1432"/>
<path d="M101.268 369V345H109.014C110.717 345 112.139 345.309 113.279 345.926C114.428 346.535 115.291 347.383 115.869 348.469C116.455 349.547 116.748 350.785 116.748 352.184C116.748 353.582 116.455 354.816 115.869 355.887C115.291 356.957 114.432 357.793 113.291 358.395C112.15 358.996 110.736 359.297 109.049 359.297H102.451V357.293H108.99C110.24 357.293 111.279 357.086 112.107 356.672C112.943 356.258 113.564 355.668 113.971 354.902C114.385 354.137 114.592 353.23 114.592 352.184C114.592 351.137 114.385 350.223 113.971 349.441C113.557 348.652 112.932 348.043 112.096 347.613C111.268 347.184 110.221 346.969 108.955 346.969H103.459V369H101.268ZM111.85 358.172L117.756 369H115.225L109.377 358.172H111.85Z" fill="#5B1432"/>
<path d="M80.873 352.5C80.6543 351.703 80.334 350.957 79.9121 350.262C79.4902 349.559 78.9668 348.945 78.3418 348.422C77.7246 347.891 77.0098 347.477 76.1973 347.18C75.3926 346.883 74.4941 346.734 73.502 346.734C71.9395 346.734 70.541 347.141 69.3066 347.953C68.0723 348.766 67.0957 349.937 66.377 351.469C65.666 353 65.3105 354.844 65.3105 357C65.3105 359.148 65.6699 360.988 66.3887 362.52C67.1074 364.051 68.0918 365.227 69.3418 366.047C70.5996 366.859 72.0371 367.266 73.6543 367.266C75.1309 367.266 76.4355 366.938 77.5684 366.281C78.7012 365.625 79.584 364.688 80.2168 363.469C80.8574 362.25 81.1699 360.801 81.1543 359.121L81.8574 359.344H74.1699V357.375H83.2871V359.344C83.2871 361.391 82.873 363.16 82.0449 364.652C81.2168 366.145 80.0801 367.297 78.6348 368.109C77.1895 368.922 75.5293 369.328 73.6543 369.328C71.5605 369.328 69.7285 368.824 68.1582 367.816C66.5879 366.801 65.3652 365.371 64.4902 363.527C63.623 361.676 63.1895 359.5 63.1895 357C63.1895 355.117 63.4395 353.418 63.9395 351.902C64.4395 350.387 65.1465 349.09 66.0605 348.012C66.9824 346.934 68.0723 346.109 69.3301 345.539C70.5879 344.961 71.9785 344.672 73.502 344.672C74.8145 344.672 76.0137 344.879 77.0996 345.293C78.1934 345.707 79.1543 346.277 79.9824 347.004C80.8184 347.723 81.502 348.555 82.0332 349.5C82.5723 350.437 82.9355 351.437 83.123 352.5H80.873Z" fill="#5B1432"/>
<path d="M408.77 399.254H413.041C413.963 399.254 414.746 399.409 415.389 399.72C416.037 400.03 416.532 400.469 416.874 401.035C417.215 401.598 417.386 402.263 417.386 403.032C417.386 403.824 417.215 404.517 416.874 405.111C416.536 405.704 416.044 406.168 415.396 406.501C414.753 406.833 413.968 407 413.041 407H407.859V393.182H409.121V405.887H413.041C413.702 405.887 414.262 405.758 414.721 405.502C415.185 405.241 415.538 404.895 415.781 404.463C416.023 404.027 416.145 403.541 416.145 403.006C416.145 402.263 415.87 401.643 415.322 401.143C414.777 400.64 414.017 400.388 413.041 400.388H408.77V399.254ZM420.274 393.182V407H419.012V393.182H420.274Z" fill="#5B1432"/>
<path d="M392.719 394.315V393.182H402.738V394.315H398.359V407H397.098V394.315H392.719Z" fill="#5B1432"/>
<path d="M388.799 400.091C388.799 401.53 388.542 402.783 388.03 403.849C387.517 404.91 386.811 405.734 385.911 406.318C385.016 406.899 383.986 407.189 382.821 407.189C381.656 407.189 380.624 406.899 379.724 406.318C378.829 405.734 378.125 404.91 377.612 403.849C377.104 402.783 376.85 401.53 376.85 400.091C376.85 398.651 377.104 397.401 377.612 396.339C378.125 395.273 378.831 394.45 379.731 393.87C380.63 393.285 381.66 392.993 382.821 392.993C383.986 392.993 385.016 393.285 385.911 393.87C386.811 394.45 387.517 395.273 388.03 396.339C388.542 397.401 388.799 398.651 388.799 400.091ZM387.571 400.091C387.571 398.854 387.364 397.794 386.95 396.913C386.536 396.027 385.972 395.35 385.257 394.882C384.541 394.414 383.729 394.18 382.821 394.18C381.917 394.18 381.107 394.414 380.392 394.882C379.677 395.35 379.11 396.024 378.692 396.906C378.278 397.788 378.071 398.849 378.071 400.091C378.071 401.328 378.278 402.387 378.692 403.269C379.105 404.15 379.67 404.827 380.385 405.299C381.1 405.767 381.912 406.001 382.821 406.001C383.729 406.001 384.541 405.767 385.257 405.299C385.976 404.832 386.543 404.157 386.957 403.275C387.371 402.389 387.575 401.328 387.571 400.091Z" fill="#5B1432"/>
<path d="M372.226 397.5H370.958C370.863 397.027 370.693 396.591 370.445 396.191C370.202 395.786 369.896 395.433 369.528 395.132C369.159 394.83 368.74 394.596 368.273 394.43C367.805 394.263 367.299 394.18 366.754 394.18C365.882 394.18 365.086 394.407 364.366 394.862C363.651 395.316 363.077 395.984 362.645 396.866C362.218 397.743 362.004 398.818 362.004 400.091C362.004 401.373 362.218 402.452 362.645 403.329C363.077 404.206 363.651 404.872 364.366 405.326C365.086 405.776 365.882 406.001 366.754 406.001C367.299 406.001 367.805 405.918 368.273 405.752C368.74 405.585 369.159 405.353 369.528 405.057C369.896 404.755 370.202 404.402 370.445 403.997C370.693 403.592 370.863 403.154 370.958 402.682H372.226C372.114 403.316 371.903 403.907 371.592 404.456C371.286 405 370.895 405.477 370.418 405.886C369.946 406.296 369.402 406.615 368.785 406.845C368.169 407.074 367.492 407.189 366.754 407.189C365.594 407.189 364.564 406.899 363.664 406.318C362.765 405.734 362.058 404.91 361.546 403.849C361.037 402.787 360.783 401.535 360.783 400.091C360.783 398.647 361.037 397.394 361.546 396.333C362.058 395.271 362.765 394.45 363.664 393.87C364.564 393.285 365.594 392.993 366.754 392.993C367.492 392.993 368.169 393.107 368.785 393.337C369.402 393.562 369.946 393.881 370.418 394.295C370.895 394.704 371.286 395.181 371.592 395.725C371.903 396.27 372.114 396.861 372.226 397.5Z" fill="#5B1432"/>
<path d="M347.324 407H346.002L351.029 393.182H352.378L357.405 407H356.082L351.751 394.821H351.656L347.324 407ZM348.276 401.703H355.131V402.837H348.276V401.703Z" fill="#5B1432"/>
<path d="M334.561 407V393.182H339.02C340.001 393.182 340.82 393.371 341.476 393.748C342.138 394.122 342.635 394.63 342.967 395.273C343.305 395.916 343.474 396.641 343.474 397.446C343.474 398.251 343.307 398.977 342.974 399.625C342.641 400.268 342.147 400.779 341.49 401.157C340.833 401.53 340.017 401.717 339.041 401.717H335.532V400.583H339.007C339.731 400.583 340.332 400.448 340.808 400.178C341.285 399.904 341.641 399.531 341.874 399.058C342.113 398.586 342.232 398.049 342.232 397.446C342.232 396.843 342.113 396.306 341.874 395.833C341.641 395.361 341.283 394.99 340.802 394.72C340.325 394.45 339.72 394.315 338.987 394.315H335.822V407H334.561Z" fill="#5B1432"/>
<path d="M328.396 407L323.639 400.482H321.648V407H320.387V393.182H321.648V399.355H322.897L327.991 393.182H329.489L324.368 399.409L329.907 407H328.396Z" fill="#5B1432"/>
<path d="M306.81 407H305.548V394.315H302.384C301.655 394.315 301.05 394.439 300.569 394.686C300.092 394.934 299.734 395.285 299.496 395.739C299.257 396.189 299.138 396.715 299.138 397.318C299.138 397.92 299.255 398.442 299.489 398.883C299.727 399.324 300.085 399.663 300.562 399.902C301.043 400.14 301.644 400.259 302.363 400.259H306.128V401.413H302.33C301.358 401.413 300.544 401.24 299.887 400.894C299.23 400.547 298.733 400.066 298.396 399.45C298.063 398.834 297.897 398.123 297.897 397.318C297.897 396.512 298.063 395.8 298.396 395.179C298.733 394.554 299.23 394.066 299.887 393.715C300.548 393.359 301.369 393.182 302.35 393.182H306.81V407ZM300.717 400.765H302.141L298.774 407H297.316L300.717 400.765Z" fill="#5B1432"/>
<path d="M281.188 393.182H282.429V404.767H282.537L290.721 393.182H291.949V407H290.688V395.428H290.58L282.409 407H281.188V393.182Z" fill="#5B1432"/>
<path d="M263.596 410.353V405.866H264.473C264.792 405.533 265.087 405.095 265.357 404.551C265.627 404.002 265.852 403.296 266.031 402.432C266.216 401.564 266.335 400.48 266.389 399.18L266.666 393.182H274.567V405.866H276.186V410.319H274.985V407H264.797V410.353H263.596ZM265.984 405.866H273.366V394.315H267.813L267.597 399.18C267.547 400.237 267.455 401.179 267.32 402.007C267.185 402.83 267.005 403.561 266.78 404.2C266.56 404.834 266.295 405.39 265.984 405.866Z" fill="#5B1432"/>
<path d="M251.575 407.189V406.008H252.263C252.65 406.008 252.972 405.947 253.228 405.826C253.489 405.7 253.705 405.527 253.876 405.306C254.051 405.081 254.202 404.818 254.328 404.517L254.558 403.964L249.801 393.182H251.157L255.192 402.439L258.916 393.182H260.252L255.482 404.895C255.288 405.354 255.068 405.756 254.821 406.102C254.578 406.444 254.258 406.712 253.863 406.905C253.467 407.094 252.945 407.189 252.297 407.189H251.575Z" fill="#5B1432"/>
<path d="M235.955 394.315V393.182H245.975V394.315H241.596V407H240.334V394.315H235.955Z" fill="#5B1432"/>
<path d="M231.549 397.5H230.28C230.186 397.027 230.015 396.591 229.767 396.191C229.524 395.786 229.219 395.433 228.85 395.132C228.481 394.83 228.063 394.596 227.595 394.43C227.127 394.263 226.621 394.18 226.077 394.18C225.204 394.18 224.408 394.407 223.688 394.862C222.973 395.316 222.4 395.984 221.968 396.866C221.54 397.743 221.327 398.818 221.327 400.091C221.327 401.373 221.54 402.452 221.968 403.329C222.4 404.206 222.973 404.872 223.688 405.326C224.408 405.776 225.204 406.001 226.077 406.001C226.621 406.001 227.127 405.918 227.595 405.752C228.063 405.585 228.481 405.353 228.85 405.057C229.219 404.755 229.524 404.402 229.767 403.997C230.015 403.592 230.186 403.154 230.28 402.682H231.549C231.436 403.316 231.225 403.907 230.914 404.456C230.609 405 230.217 405.477 229.74 405.886C229.268 406.296 228.724 406.615 228.108 406.845C227.491 407.074 226.814 407.189 226.077 407.189C224.916 407.189 223.886 406.899 222.986 406.318C222.087 405.734 221.381 404.91 220.868 403.849C220.36 402.787 220.105 401.535 220.105 400.091C220.105 398.647 220.36 397.394 220.868 396.333C221.381 395.271 222.087 394.45 222.986 393.87C223.886 393.285 224.916 392.993 226.077 392.993C226.814 392.993 227.491 393.107 228.108 393.337C228.724 393.562 229.268 393.881 229.74 394.295C230.217 394.704 230.609 395.181 230.914 395.725C231.225 396.27 231.436 396.861 231.549 397.5Z" fill="#5B1432"/>
<path fill-rule="evenodd" clip-rule="evenodd" d="M303.658 249.856C297.006 245.618 288.989 244.074 281.239 245.54C273.489 247.006 266.589 251.371 261.944 257.746C257.3 264.121 255.26 272.027 256.241 279.853C257.221 287.68 261.148 294.838 267.221 299.87C273.295 304.903 281.058 307.431 288.93 306.94C296.803 306.449 304.192 302.975 309.593 297.227C314.993 291.478 318 283.888 318 276H320C320 284.396 316.799 292.477 311.05 298.596C305.301 304.715 297.435 308.413 289.055 308.936C280.675 309.459 272.411 306.768 265.945 301.411C259.48 296.053 255.3 288.433 254.256 280.102C253.212 271.771 255.384 263.355 260.328 256.569C265.272 249.782 272.617 245.136 280.867 243.575C289.117 242.015 297.652 243.658 304.733 248.169C311.814 252.681 316.909 259.723 318.98 267.86L317.042 268.353C315.096 260.709 310.31 254.095 303.658 249.856Z" fill="#5B1432"/>
<path fill-rule="evenodd" clip-rule="evenodd" d="M320 278L267 278L267 276L320 276L320 278Z" fill="#5B1432"/>
<path fill-rule="evenodd" clip-rule="evenodd" d="M290 308L290 276L292 276L292 308L290 308Z" fill="#5B1432"/>
<path fill-rule="evenodd" clip-rule="evenodd" d="M366.5 271H353V306H366.5C376.165 306 384 298.165 384 288.5C384 278.835 376.165 271 366.5 271ZM351 269V308H366.5C377.27 308 386 299.27 386 288.5C386 277.73 377.27 269 366.5 269H351Z" fill="#5B1432"/>
<path fill-rule="evenodd" clip-rule="evenodd" d="M360.5 246H353V269H360.5C366.851 269 372 263.851 372 257.5C372 251.149 366.851 246 360.5 246ZM351 244V271H360.5C367.956 271 374 264.956 374 257.5C374 250.044 367.956 244 360.5 244H351Z" fill="#5B1432"/>
<path fill-rule="evenodd" clip-rule="evenodd" d="M351 271H332V306H351V271ZM330 269V308H353V269H330Z" fill="#5B1432"/>
<path fill-rule="evenodd" clip-rule="evenodd" d="M351 246H332V269H351V246ZM330 244V271H353V244H330Z" fill="#5B1432"/>
</svg>
