<svg width="640" height="640" viewBox="0 0 640 640" fill="none" xmlns="http://www.w3.org/2000/svg">
<path fill-rule="evenodd" clip-rule="evenodd" d="M256.862 219.489C231.161 203.113 200.184 197.15 170.241 202.814C140.297 208.478 113.638 225.342 95.6937 249.974C77.7492 274.605 69.8685 305.15 73.6566 335.388C77.4446 365.626 92.6166 393.283 116.083 412.727C139.548 432.17 169.543 441.938 199.959 440.04C230.374 438.142 258.923 424.722 279.79 402.513C300.657 380.303 312.273 350.974 312.273 320.5H320C320 352.941 307.635 384.161 285.421 407.804C263.208 431.446 232.818 445.732 200.44 447.752C168.062 449.773 136.132 439.375 111.152 418.677C86.1725 397.979 70.0217 368.538 65.9892 336.348C61.9568 304.159 70.3459 271.644 89.4481 245.423C108.55 219.203 136.929 201.25 168.804 195.221C200.68 189.192 233.655 195.54 261.014 212.972C288.373 230.405 308.058 257.61 316.06 289.049L308.572 290.955C301.055 261.422 282.562 235.865 256.862 219.489Z" fill="#5B1432"/>
<path fill-rule="evenodd" clip-rule="evenodd" d="M320.001 328.227L115.229 328.227L115.229 320.5L320.001 320.5L320.001 328.227Z" fill="#5B1432"/>
<path fill-rule="evenodd" clip-rule="evenodd" d="M204.091 444.136L204.091 320.5L211.818 320.5L211.818 444.136L204.091 444.136Z" fill="#5B1432"/>
<path fill-rule="evenodd" clip-rule="evenodd" d="M499.66 301.182H447.501V436.409H499.66C537.002 436.409 567.273 406.137 567.273 368.796C567.273 331.454 537.002 301.182 499.66 301.182ZM439.773 293.455V444.136H499.66C541.269 444.136 575.001 410.405 575.001 368.796C575.001 327.186 541.269 293.455 499.66 293.455H439.773Z" fill="#5B1432"/>
<path fill-rule="evenodd" clip-rule="evenodd" d="M476.478 204.591H447.501V293.455H476.478C501.017 293.455 520.91 273.562 520.91 249.023C520.91 224.484 501.017 204.591 476.478 204.591ZM439.773 196.864V301.182H476.478C505.285 301.182 528.637 277.83 528.637 249.023C528.637 220.216 505.285 196.864 476.478 196.864H439.773Z" fill="#5B1432"/>
<path fill-rule="evenodd" clip-rule="evenodd" d="M439.773 301.182H366.364V436.409H439.773V301.182ZM358.637 293.455V444.136H447.5V293.455H358.637Z" fill="#5B1432"/>
<path fill-rule="evenodd" clip-rule="evenodd" d="M439.773 204.591H366.364V293.455H439.773V204.591ZM358.637 196.864V301.182H447.5V196.864H358.637Z" fill="#5B1432"/>
</svg>
